<?xml version="1.0" standalone="no"?>
<!DOCTYPE svg PUBLIC "-//W3C//DTD SVG 20010904//EN"
 "http://www.w3.org/TR/2001/REC-SVG-20010904/DTD/svg10.dtd">
<svg version="1.0" xmlns="http://www.w3.org/2000/svg"
 width="500.000000pt" height="500.000000pt" viewBox="0 0 500.000000 500.000000"
 preserveAspectRatio="xMidYMid meet">

<g transform="translate(0.000000,500.000000) scale(0.100000,-0.100000)"
fill="#000000" stroke="none">
<path d="M2350 3005 l0 -1586 148 3 147 3 3 1428 2 1427 26 0 c44 0 166 -21
269 -46 445 -110 834 -398 1086 -805 165 -265 259 -602 259 -926 0 -482 -184
-928 -526 -1270 -259 -259 -589 -431 -962 -500 -180 -34 -609 -18 -727 27
l-25 10 -1 1702 c-1 937 -1 1786 1 1887 l2 184 -38 -8 c-83 -15 -307 -96 -425
-153 -126 -60 -303 -171 -394 -245 -80 -66 -242 -226 -310 -307 -193 -232
-353 -555 -423 -855 -69 -294 -69 -656 0 -950 119 -512 440 -974 883 -1269
l100 -66 3 177 c3 177 3 178 -21 198 -148 123 -191 163 -263 243 -235 263
-391 599 -438 945 l-13 97 518 0 519 0 2 -902 3 -903 114 -38 c63 -20 175 -49
250 -64 125 -25 156 -27 381 -27 226 0 256 2 384 27 758 149 1363 679 1602
1403 243 739 59 1544 -481 2103 -182 188 -368 324 -590 431 -290 141 -594 210
-917 210 l-148 0 0 -1585z m-600 380 l0 -735 -518 0 -519 0 14 103 c22 166 76
344 155 517 137 298 405 593 698 767 109 65 142 82 158 83 9 0 12 -153 12
-735z"/>
</g>
</svg>
