<svg xmlns="http://www.w3.org/2000/svg" xmlns:xlink="http://www.w3.org/1999/xlink" width="500" zoomAndPan="magnify" viewBox="0 0 375 374.999991" height="500" preserveAspectRatio="xMidYMid meet" version="1.0"><defs><clipPath id="8717d2b481"><path d="M 30.542969 30.542969 L 344.453125 30.542969 L 344.453125 344.453125 L 30.542969 344.453125 Z M 30.542969 30.542969 " clip-rule="nonzero"/></clipPath><clipPath id="3f46621f74"><path d="M 187.496094 30.542969 C 100.8125 30.542969 30.542969 100.8125 30.542969 187.496094 C 30.542969 274.179688 100.8125 344.453125 187.496094 344.453125 C 274.179688 344.453125 344.453125 274.179688 344.453125 187.496094 C 344.453125 100.8125 274.179688 30.542969 187.496094 30.542969 Z M 187.496094 30.542969 " clip-rule="nonzero"/></clipPath></defs><rect x="-37.5" width="450" fill="#ffffff" y="-37.499999" height="449.999989" fill-opacity="1"/><rect x="-37.5" width="450" fill="#ffffff" y="-37.499999" height="449.999989" fill-opacity="1"/><g clip-path="url(#8717d2b481)"><g clip-path="url(#3f46621f74)"><path stroke-linecap="butt" transform="matrix(0.75, 0, 0, 0.75, 30.541995, 30.54199)" fill="none" stroke-linejoin="miter" d="M 209.272146 0.00130469 C 93.694013 0.00130469 0.00129869 93.694019 0.00129869 209.272152 C 0.00129869 324.850284 93.694013 418.548207 209.272146 418.548207 C 324.850278 418.548207 418.548201 324.850284 418.548201 209.272152 C 418.548201 93.694019 324.850278 0.00130469 209.272146 0.00130469 Z M 209.272146 0.00130469 " stroke="#000000" stroke-width="60" stroke-opacity="1" stroke-miterlimit="4"/></g></g><path stroke-linecap="butt" transform="matrix(0.000000001309, 0.75, -0.75, 0.000000001309, 131.28338, 235.891698)" fill="none" stroke-linejoin="miter" d="M -0.00143084 14.997632 L 223.243375 14.997633 " stroke="#ffffff" stroke-width="30" stroke-opacity="1" stroke-miterlimit="4"/><path stroke-linecap="butt" transform="matrix(0, 0.75, -0.75, 0, 153.491946, 43.312497)" fill="none" stroke-linejoin="miter" d="M 0.00000379225 14.99968 L 384.510446 14.99968 " stroke="#000000" stroke-width="30" stroke-opacity="1" stroke-miterlimit="4"/><path stroke-linecap="butt" transform="matrix(-0.75, 0.000000001309, -0.000000001309, -0.75, 151.992182, 198.749987)" fill="none" stroke-linejoin="miter" d="M -0.00000773394 14.999984 L 151.661461 14.999984 " stroke="#000000" stroke-width="30" stroke-opacity="1" stroke-miterlimit="4"/><path stroke-linecap="butt" transform="matrix(0, 0.75, -0.75, 0, 175.992912, 24.348406)" fill="none" stroke-linejoin="miter" d="M -0.000999562 15.000967 L 50.566712 15.000967 " stroke="#ffffff" stroke-width="30" stroke-opacity="1" stroke-miterlimit="4"/><path stroke-linecap="butt" transform="matrix(0, 0.75, -0.75, 0, 198.749053, 37.500935)" fill="none" stroke-linejoin="miter" d="M -0.00124664 14.998738 L 307.597732 14.998738 " stroke="#000000" stroke-width="30" stroke-opacity="1" stroke-miterlimit="4"/></svg>